HIERARCHY
ROOT hip
{
	OFFSET 0.000000 0.000000 0.000000 
	CHANNELS 6 Xposition Yposition Zposition Xrotation Yrotation Zrotation
	JOINT abdomen
	{
		OFFSET 0.000000 3.402643 0.000000 
		CHANNELS 3 Xrotation  Yrotation Zrotation
		JOINT chest
		{
			OFFSET 0.000000 8.438565 -0.680529 
			CHANNELS 3 Xrotation  Yrotation Zrotation
			JOINT neck
			{
				OFFSET 0.000000 10.207942 -0.272212 
				CHANNELS 3 Xrotation  Yrotation Zrotation
				JOINT head
				{
					OFFSET 0.000000 3.130431 0.000000 
					CHANNELS 3 Xrotation  Yrotation Zrotation
					End Site
					{
						OFFSET 0.000000 3.130435 0.000000 
					}
				}
			}
			JOINT lCollar
			{
				OFFSET 3.470700 6.669187 -0.816635 
				CHANNELS 3 Xrotation  Yrotation Zrotation
				JOINT lShldr
				{
					OFFSET 3.198488 0.000000 0.000000 
					CHANNELS 3 Xrotation  Yrotation Zrotation
					JOINT lForeArm
					{
						OFFSET 10.139888 0.000000 0.000000 
						CHANNELS 3 Xrotation  Yrotation Zrotation
						JOINT lHand
						{
							OFFSET 8.370511 0.000000 0.000000 
							CHANNELS 3 Xrotation  Yrotation Zrotation
							End Site
							{
								OFFSET 4.083176 0.000000 0.000000 
							}
						}
					}
				}
			}
			JOINT rCollar
			{
				OFFSET -3.470700 6.669187 -0.816635 
				CHANNELS 3 Xrotation  Yrotation Zrotation
				JOINT rShldr
				{
					OFFSET -3.198488 0.000000 0.000000 
					CHANNELS 3 Xrotation  Yrotation Zrotation
					JOINT rForeArm
					{
						OFFSET -10.139888 0.000000 0.000000 
						CHANNELS 3 Xrotation  Yrotation Zrotation
						JOINT rHand
						{
							OFFSET -8.370511 0.000000 0.000000 
							CHANNELS 3 Xrotation  Yrotation Zrotation
							End Site
							{
								OFFSET -4.083176 0.000000 0.000000 
							}
						}
					}
				}
			}
		}
	}
	JOINT lThigh
	{
		OFFSET 5.308129 -1.633274 1.361059 
		CHANNELS 3 Xrotation  Yrotation Zrotation
		JOINT lShin
		{
			OFFSET -2.041588 -20.007561 0.000000 
			CHANNELS 3 Xrotation  Yrotation Zrotation
			JOINT lFoot
			{
				OFFSET 0.000000 -19.190928 -1.224953 
				CHANNELS 3 Xrotation  Yrotation Zrotation
				End Site
				{
					OFFSET 0.000000 -2.449906 4.627600 
				}
			}
		}
	}
	JOINT rThigh
	{
		OFFSET -5.308129 -1.633274 1.361059 
		CHANNELS 3 Xrotation  Yrotation Zrotation
		JOINT rShin
		{
			OFFSET 2.041588 -20.007561 0.000000 
			CHANNELS 3 Xrotation  Yrotation Zrotation
			JOINT rFoot
			{
				OFFSET 0.000000 -19.190928 -1.224953 
				CHANNELS 3 Xrotation  Yrotation Zrotation
				End Site
				{
					OFFSET 0.000000 -2.449906 4.627600 
				}
			}
		}
	}
}
MOTION
Frames: 15
Frame Time: 0.033333
0.074630 39.484467 0.095167 14.300117 -4.682189 -4.490809 0.000000 0.000000 0.000000 1.174452 7.116072 3.148110 3.934545 -0.093456 -0.939673 -18.272930 -1.962275 0.923646 23.372652 -0.564002 22.311138 -10.753918 5.355847 -79.336662 85.142990 -11.839046 40.599949 -57.147053 9.558329 -9.396479 21.079773 -14.432017 -15.041227 40.688698 59.302692 32.901138 4.278329 33.520889 -29.486835 -79.027740 -32.718441 -8.741495 -67.234818 11.014297 15.584972 90.068275 -0.261386 13.388063 -21.173185 -10.040112 -20.060959 5.070767 3.219566 7.497377 61.879108 1.349563 -15.229344 -47.324753 -18.696674 16.218239 
0.260148 40.435196 0.204388 15.293605 -4.794601 -3.937598 0.000000 0.000000 0.000000 -0.314970 7.142485 3.159304 3.765309 -0.182641 -2.188619 -18.143116 -2.090580 0.950927 23.582581 0.419221 20.409426 -10.864382 5.512672 -78.835609 87.226837 -11.419917 42.068359 -57.237030 9.075259 -9.420335 20.984917 -14.105140 -16.570335 40.472221 59.781170 33.181358 7.368345 32.507126 -30.479736 -78.976128 -33.438370 -8.322125 -65.239357 11.354267 14.918337 86.408539 -0.449071 12.510931 -19.741789 -10.387721 -18.820545 4.669333 2.916410 6.379682 58.758480 1.117026 -14.955413 -39.826992 -16.829922 20.062828 
0.545919 41.954269 0.320638 16.955158 -5.093124 -3.309077 0.000000 0.000000 0.000000 -2.690636 7.270566 3.551318 3.777463 -0.300405 -3.817375 -17.663872 -2.009778 1.024935 23.813334 1.592842 18.212299 -10.558213 5.603266 -78.782455 89.594559 -11.232712 43.911816 -57.361938 8.493328 -9.451130 20.859840 -13.826086 -18.389845 40.162350 60.195831 33.344906 10.250273 32.154408 -31.033752 -78.875320 -33.927013 -8.376703 -61.941654 11.877044 13.656110 79.869385 -0.550622 11.631546 -17.826912 -10.823579 -16.071487 2.750834 2.365195 4.309474 55.590290 1.114835 -13.634767 -28.122816 -11.631767 23.231783 
0.692763 43.555439 0.361060 18.673363 -5.354216 -3.450150 0.000000 0.000000 0.000000 -5.028962 7.481441 4.389562 3.901606 -0.338286 -4.380432 -16.756620 -1.898614 1.059247 23.832760 2.156245 17.873661 -9.854820 5.282455 -80.026123 90.569221 -11.439203 44.740849 -57.389839 8.333519 -9.560167 20.701702 -14.046869 -18.913172 40.113682 60.162289 33.289009 11.113461 32.742767 -31.078665 -78.800911 -33.861237 -8.935495 -58.643005 12.514063 12.837371 72.033730 -0.348701 11.799850 -14.658027 -12.059958 -13.281535 -0.077237 2.148989 3.358779 52.838551 1.015543 -12.931358 -15.783809 -4.474896 23.843887 
0.760871 45.217999 0.418552 20.173241 -5.663014 -3.780190 0.000000 0.000000 0.000000 -7.217965 7.671040 5.208663 4.184896 -0.347662 -4.473351 -15.859196 -1.823370 1.066953 23.803120 2.464044 18.015955 -8.945638 4.959744 -81.298378 91.523354 -11.735038 45.345779 -57.369404 8.501480 -9.645212 20.610596 -14.332236 -18.685223 40.199429 59.865173 33.076305 11.761242 33.195061 -31.249662 -78.783562 -33.988232 -9.230474 -54.875889 13.379200 12.469481 63.160664 -0.048465 12.055356 -10.288041 -14.202842 -11.102609 -2.769539 2.157459 3.102126 49.574390 0.733082 -12.669912 -5.689477 1.656141 21.540968 
0.759556 46.952400 0.491812 21.482548 -6.013542 -4.258558 0.000000 0.000000 0.000000 -9.269414 7.842737 5.958381 4.656608 -0.326782 -4.115662 -14.980675 -1.830415 1.038463 23.730221 2.453100 18.584501 -7.912720 4.623152 -82.541924 92.485443 -12.080567 45.765850 -57.323872 8.971857 -9.658927 20.587315 -14.698586 -17.696188 40.437561 59.252342 32.691814 12.303477 33.469677 -31.605808 -78.811928 -34.261955 -9.214462 -50.554722 14.447028 12.516876 52.965919 0.348418 12.057162 -4.548874 -17.289503 -9.193364 -5.316246 2.309440 3.396335 45.772614 0.344777 -12.762688 2.474081 6.594514 18.434643 
0.680455 49.002857 0.553108 22.855530 -6.119668 -4.713993 0.000000 0.000000 0.000000 -11.495943 7.890839 6.221739 5.610755 -0.230822 -2.830498 -14.484598 -2.241876 0.746011 23.649992 1.132673 19.632656 -6.855604 4.555509 -83.070389 94.419365 -12.406052 46.415215 -57.321877 10.223404 -8.887777 20.831596 -15.252297 -14.713671 41.097687 57.503670 31.627573 14.046301 32.476822 -33.384800 -78.928352 -34.695873 -7.936670 -45.499294 15.733848 12.960927 41.878456 0.755269 11.510034 2.326116 -21.022648 -8.952477 -9.138883 2.564726 3.846973 41.855644 0.041944 -12.353849 5.181381 7.466367 18.920177 
0.642105 50.522186 0.533278 24.028162 -5.847216 -4.934559 0.000000 0.000000 0.000000 -13.152499 7.858624 6.097901 6.307009 -0.146130 -1.577682 -14.359438 -2.822802 0.324020 23.598213 -0.527262 20.711809 -6.539173 4.477665 -83.352173 95.623405 -12.637349 46.703304 -57.318764 11.136492 -8.419336 21.049332 -15.945968 -12.109415 41.549721 55.932045 30.696817 14.741755 31.970285 -34.197773 -79.008736 -34.827972 -7.093589 -42.136169 16.452261 12.968675 35.321091 0.993175 11.054066 6.212102 -22.801752 -8.648604 -13.116197 2.612134 3.556452 40.067764 0.232599 -10.818287 5.897114 5.775527 20.863153 
0.638487 51.610962 0.448346 25.003311 -5.261784 -4.988837 0.000000 0.000000 0.000000 -14.310700 7.752036 5.673510 6.767372 -0.055747 -0.389283 -14.512002 -3.515041 -0.162013 23.578167 -2.387389 21.817865 -6.837675 4.379416 -83.475662 96.327789 -12.742272 46.722038 -57.298252 11.839548 -8.179893 21.248556 -16.752792 -9.898624 41.848736 54.625492 29.915989 14.735758 31.729504 -34.407661 -79.071442 -34.730515 -6.520492 -40.293766 16.685207 12.577033 33.296524 1.163780 11.219190 6.771102 -23.019999 -8.909161 -17.257902 2.510854 2.618050 40.114445 0.750140 -8.448837 4.998170 2.295446 23.932594 
0.674847 52.318588 0.330630 25.375772 -4.473989 -4.937887 0.000000 0.000000 0.000000 -14.547857 7.615797 5.079934 6.943608 0.004724 0.505077 -14.711879 -4.086289 -0.467661 23.531227 -3.988304 23.118481 -7.931993 4.039240 -83.973381 96.981323 -12.157309 46.582943 -57.133640 12.714068 -8.313511 21.220823 -17.786507 -8.727527 41.947655 54.140839 29.633593 15.498529 30.727531 -35.287189 -79.104500 -34.129189 -5.445507 -39.140324 16.677818 11.745823 36.320621 1.231281 12.334486 3.572695 -21.485369 -8.762343 -21.605577 2.234358 1.123741 42.253227 1.665152 -5.401475 3.515639 -1.966462 24.371897 
0.713529 52.831570 0.289693 24.611485 -3.862961 -4.781244 0.000000 0.000000 0.000000 -13.624233 7.488684 4.423940 7.080426 0.051693 1.101370 -14.711144 -4.321130 -0.557784 23.438475 -4.874103 24.330688 -9.379333 3.600867 -84.657990 98.032745 -11.026887 46.341831 -56.802227 13.647243 -8.970834 21.011257 -18.791338 -8.429580 42.053333 54.265862 29.867331 15.842369 29.831240 -36.016121 -79.137802 -33.797516 -4.382024 -36.688702 16.873550 10.976438 41.880901 1.220639 13.691012 -0.980715 -19.533106 -7.432981 -25.526440 1.996017 -0.381789 45.226173 2.572823 -2.612076 2.290073 -4.909309 22.623281 
0.750551 53.169800 0.301012 23.164879 -3.447785 -4.544342 0.000000 0.000000 0.000000 -12.015534 7.362402 3.791929 7.226955 0.077024 1.427436 -14.576781 -4.282656 -0.468229 23.312351 -5.190873 25.360628 -10.962368 3.174192 -85.410576 99.320320 -9.642878 46.065666 -56.335972 14.461297 -10.008331 20.686136 -19.670610 -8.740038 42.242012 54.733982 30.389341 16.005470 29.008093 -36.715855 -79.185417 -33.701271 -3.403430 -33.314014 17.258627 10.258887 48.480927 1.153702 14.921391 -5.657519 -17.404236 -5.145287 -29.042658 1.743345 -1.699803 48.377094 3.424107 -0.300653 1.555315 -6.600720 19.477251 
0.775364 53.146267 0.350973 21.886787 -3.339931 -4.221532 0.000000 0.000000 0.000000 -10.699976 7.263729 3.312905 7.578776 0.063338 1.328028 -14.436042 -4.049791 -0.306356 23.239897 -4.952509 25.655146 -11.808664 3.022671 -85.645546 100.059074 -8.962926 46.034008 -56.059551 14.603552 -10.695512 20.457344 -20.018433 -9.256624 42.595779 54.920162 30.871506 16.563393 28.314537 -37.579453 -79.202866 -33.945625 -3.002737 -30.112963 17.611713 9.747527 52.762859 1.103777 15.544069 -7.908695 -17.421156 -2.725063 -31.378317 1.703267 -2.315667 50.418793 3.830531 0.779543 1.798131 -5.757711 17.357153 
0.781807 52.983284 0.382368 20.939182 -3.224538 -4.008552 0.000000 0.000000 0.000000 -9.751359 7.179285 2.913334 7.989090 0.057880 1.286582 -14.413516 -3.967534 -0.270344 23.224136 -4.936083 25.742168 -12.380195 3.024824 -85.483192 100.297813 -8.775837 46.145901 -56.004662 14.551260 -10.870883 20.350529 -20.219067 -9.413906 43.057137 54.677635 31.121500 16.996288 27.789257 -38.107964 -79.214043 -34.026772 -2.925216 -27.056295 17.925415 9.265766 55.752029 1.099594 16.140163 -9.239215 -18.105444 -0.886528 -34.002327 1.704571 -2.696141 52.211590 4.252829 1.784273 2.168715 -4.395120 15.889265 
0.766557 52.675560 0.399525 20.239595 -3.035857 -3.909529 0.000000 0.000000 0.000000 -9.056806 7.101731 2.567914 8.428577 0.066823 1.341685 -14.498545 -4.036343 -0.360308 23.257393 -5.178945 25.697561 -12.780368 3.122740 -85.015900 100.076691 -8.957709 46.329220 -56.137806 14.385867 -10.576547 20.376320 -20.320881 -9.201710 43.618942 54.006744 31.202698 17.072311 27.606611 -38.165394 -79.238602 -33.926109 -3.194572 -23.988329 18.196190 8.849147 57.601730 1.162899 16.774483 -10.046114 -19.191824 0.436025 -36.938999 1.783371 -2.931024 53.766022 4.645916 2.902239 2.897829 -2.581211 15.488687 
